<mxfile host="Electron" modified="2024-11-02T08:43:36.131Z" agent="Mozilla/5.0 (Macintosh; Intel Mac OS X 10_15_7) AppleWebKit/537.36 (KHTML, like Gecko) draw.io/24.0.4 Chrome/120.0.6099.109 Electron/28.1.0 Safari/537.36" etag="vUpvl2ejY3qBZlzNiFs-" version="24.0.4" type="device">
  <diagram name="Page-1" id="_nR7e4XgD6fj8UJKNjDj">
    <mxGraphModel dx="1794" dy="1255" grid="1" gridSize="10" guides="1" tooltips="1" connect="1" arrows="1" fold="1" page="1" pageScale="1" pageWidth="850" pageHeight="1100" math="0" shadow="0">
      <root>
        <mxCell id="0" />
        <mxCell id="1" parent="0" />
        <mxCell id="KQ_jogMIXowBVhOlgcpt-2" value="" style="shape=flexArrow;endArrow=classic;html=1;rounded=0;endWidth=12.083333333333334;endSize=5.916666666666667;fillColor=#e3c800;strokeColor=#B09500;" parent="1" edge="1">
          <mxGeometry width="50" height="50" relative="1" as="geometry">
            <mxPoint x="240" y="390" as="sourcePoint" />
            <mxPoint x="330" y="390" as="targetPoint" />
          </mxGeometry>
        </mxCell>
        <mxCell id="KQ_jogMIXowBVhOlgcpt-4" value="LDGSTS" style="edgeLabel;html=1;align=center;verticalAlign=middle;resizable=0;points=[];" parent="KQ_jogMIXowBVhOlgcpt-2" vertex="1" connectable="0">
          <mxGeometry x="-0.0829" y="-2" relative="1" as="geometry">
            <mxPoint x="-1" as="offset" />
          </mxGeometry>
        </mxCell>
        <mxCell id="KQ_jogMIXowBVhOlgcpt-5" value="" style="shape=flexArrow;endArrow=classic;html=1;rounded=0;endWidth=12.083333333333334;endSize=5.916666666666667;fillColor=#1ba1e2;strokeColor=#006EAF;" parent="1" edge="1">
          <mxGeometry width="50" height="50" relative="1" as="geometry">
            <mxPoint x="330" y="390" as="sourcePoint" />
            <mxPoint x="400" y="390" as="targetPoint" />
          </mxGeometry>
        </mxCell>
        <mxCell id="KQ_jogMIXowBVhOlgcpt-6" value="S2R" style="edgeLabel;html=1;align=center;verticalAlign=middle;resizable=0;points=[];" parent="KQ_jogMIXowBVhOlgcpt-5" vertex="1" connectable="0">
          <mxGeometry x="-0.0829" y="-2" relative="1" as="geometry">
            <mxPoint x="-1" as="offset" />
          </mxGeometry>
        </mxCell>
        <mxCell id="KQ_jogMIXowBVhOlgcpt-7" value="" style="shape=flexArrow;endArrow=classic;html=1;rounded=0;endWidth=12.083333333333334;endSize=5.916666666666667;fillColor=#a20025;strokeColor=#6F0000;" parent="1" edge="1">
          <mxGeometry width="50" height="50" relative="1" as="geometry">
            <mxPoint x="400" y="390" as="sourcePoint" />
            <mxPoint x="470" y="390" as="targetPoint" />
          </mxGeometry>
        </mxCell>
        <mxCell id="KQ_jogMIXowBVhOlgcpt-8" value="calc" style="edgeLabel;html=1;align=center;verticalAlign=middle;resizable=0;points=[];" parent="KQ_jogMIXowBVhOlgcpt-7" vertex="1" connectable="0">
          <mxGeometry x="-0.0829" y="-2" relative="1" as="geometry">
            <mxPoint x="-1" as="offset" />
          </mxGeometry>
        </mxCell>
        <mxCell id="KQ_jogMIXowBVhOlgcpt-9" value="" style="shape=flexArrow;endArrow=classic;html=1;rounded=0;endWidth=12.083333333333334;endSize=5.916666666666667;fillColor=#1ba1e2;strokeColor=#006EAF;" parent="1" edge="1">
          <mxGeometry width="50" height="50" relative="1" as="geometry">
            <mxPoint x="470" y="390" as="sourcePoint" />
            <mxPoint x="540" y="390" as="targetPoint" />
          </mxGeometry>
        </mxCell>
        <mxCell id="KQ_jogMIXowBVhOlgcpt-10" value="R2S" style="edgeLabel;html=1;align=center;verticalAlign=middle;resizable=0;points=[];" parent="KQ_jogMIXowBVhOlgcpt-9" vertex="1" connectable="0">
          <mxGeometry x="-0.0829" y="-2" relative="1" as="geometry">
            <mxPoint x="-1" as="offset" />
          </mxGeometry>
        </mxCell>
        <mxCell id="KQ_jogMIXowBVhOlgcpt-11" value="" style="shape=flexArrow;endArrow=classic;html=1;rounded=0;endWidth=12.083333333333334;endSize=5.916666666666667;fillColor=#e3c800;strokeColor=#B09500;" parent="1" edge="1">
          <mxGeometry width="50" height="50" relative="1" as="geometry">
            <mxPoint x="540" y="390" as="sourcePoint" />
            <mxPoint x="630" y="390" as="targetPoint" />
          </mxGeometry>
        </mxCell>
        <mxCell id="KQ_jogMIXowBVhOlgcpt-12" value="LDS" style="edgeLabel;html=1;align=center;verticalAlign=middle;resizable=0;points=[];" parent="KQ_jogMIXowBVhOlgcpt-11" vertex="1" connectable="0">
          <mxGeometry x="-0.0829" y="-2" relative="1" as="geometry">
            <mxPoint x="-1" as="offset" />
          </mxGeometry>
        </mxCell>
        <mxCell id="KQ_jogMIXowBVhOlgcpt-13" value="tid=0" style="rounded=1;whiteSpace=wrap;html=1;" parent="1" vertex="1">
          <mxGeometry x="150" y="380" width="50" height="20" as="geometry" />
        </mxCell>
        <mxCell id="KQ_jogMIXowBVhOlgcpt-14" value="" style="endArrow=classic;html=1;rounded=0;exitX=1;exitY=0.5;exitDx=0;exitDy=0;" parent="1" source="KQ_jogMIXowBVhOlgcpt-13" edge="1">
          <mxGeometry width="50" height="50" relative="1" as="geometry">
            <mxPoint x="180" y="470" as="sourcePoint" />
            <mxPoint x="240" y="390" as="targetPoint" />
          </mxGeometry>
        </mxCell>
        <mxCell id="KQ_jogMIXowBVhOlgcpt-15" value="" style="shape=flexArrow;endArrow=classic;html=1;rounded=0;endWidth=12.083333333333334;endSize=5.916666666666667;fillColor=#e3c800;strokeColor=#B09500;" parent="1" edge="1">
          <mxGeometry width="50" height="50" relative="1" as="geometry">
            <mxPoint x="240" y="420" as="sourcePoint" />
            <mxPoint x="330" y="420" as="targetPoint" />
          </mxGeometry>
        </mxCell>
        <mxCell id="KQ_jogMIXowBVhOlgcpt-16" value="LDGSTS" style="edgeLabel;html=1;align=center;verticalAlign=middle;resizable=0;points=[];" parent="KQ_jogMIXowBVhOlgcpt-15" vertex="1" connectable="0">
          <mxGeometry x="-0.0829" y="-2" relative="1" as="geometry">
            <mxPoint x="-1" as="offset" />
          </mxGeometry>
        </mxCell>
        <mxCell id="KQ_jogMIXowBVhOlgcpt-17" value="" style="shape=flexArrow;endArrow=classic;html=1;rounded=0;endWidth=12.083333333333334;endSize=5.916666666666667;fillColor=#1ba1e2;strokeColor=#006EAF;" parent="1" edge="1">
          <mxGeometry width="50" height="50" relative="1" as="geometry">
            <mxPoint x="330" y="420" as="sourcePoint" />
            <mxPoint x="400" y="420" as="targetPoint" />
          </mxGeometry>
        </mxCell>
        <mxCell id="KQ_jogMIXowBVhOlgcpt-18" value="S2R" style="edgeLabel;html=1;align=center;verticalAlign=middle;resizable=0;points=[];" parent="KQ_jogMIXowBVhOlgcpt-17" vertex="1" connectable="0">
          <mxGeometry x="-0.0829" y="-2" relative="1" as="geometry">
            <mxPoint x="-1" as="offset" />
          </mxGeometry>
        </mxCell>
        <mxCell id="KQ_jogMIXowBVhOlgcpt-19" value="" style="shape=flexArrow;endArrow=classic;html=1;rounded=0;endWidth=12.083333333333334;endSize=5.916666666666667;fillColor=#a20025;strokeColor=#6F0000;" parent="1" edge="1">
          <mxGeometry width="50" height="50" relative="1" as="geometry">
            <mxPoint x="400" y="420" as="sourcePoint" />
            <mxPoint x="470" y="420" as="targetPoint" />
          </mxGeometry>
        </mxCell>
        <mxCell id="KQ_jogMIXowBVhOlgcpt-20" value="calc" style="edgeLabel;html=1;align=center;verticalAlign=middle;resizable=0;points=[];" parent="KQ_jogMIXowBVhOlgcpt-19" vertex="1" connectable="0">
          <mxGeometry x="-0.0829" y="-2" relative="1" as="geometry">
            <mxPoint x="-1" as="offset" />
          </mxGeometry>
        </mxCell>
        <mxCell id="KQ_jogMIXowBVhOlgcpt-21" value="" style="shape=flexArrow;endArrow=classic;html=1;rounded=0;endWidth=12.083333333333334;endSize=5.916666666666667;fillColor=#1ba1e2;strokeColor=#006EAF;" parent="1" edge="1">
          <mxGeometry width="50" height="50" relative="1" as="geometry">
            <mxPoint x="470" y="420" as="sourcePoint" />
            <mxPoint x="540" y="420" as="targetPoint" />
          </mxGeometry>
        </mxCell>
        <mxCell id="KQ_jogMIXowBVhOlgcpt-22" value="R2S" style="edgeLabel;html=1;align=center;verticalAlign=middle;resizable=0;points=[];" parent="KQ_jogMIXowBVhOlgcpt-21" vertex="1" connectable="0">
          <mxGeometry x="-0.0829" y="-2" relative="1" as="geometry">
            <mxPoint x="-1" as="offset" />
          </mxGeometry>
        </mxCell>
        <mxCell id="KQ_jogMIXowBVhOlgcpt-23" value="" style="shape=flexArrow;endArrow=classic;html=1;rounded=0;endWidth=12.083333333333334;endSize=5.916666666666667;fillColor=#e3c800;strokeColor=#B09500;" parent="1" edge="1">
          <mxGeometry width="50" height="50" relative="1" as="geometry">
            <mxPoint x="540" y="420" as="sourcePoint" />
            <mxPoint x="630" y="420" as="targetPoint" />
          </mxGeometry>
        </mxCell>
        <mxCell id="KQ_jogMIXowBVhOlgcpt-24" value="LDS" style="edgeLabel;html=1;align=center;verticalAlign=middle;resizable=0;points=[];" parent="KQ_jogMIXowBVhOlgcpt-23" vertex="1" connectable="0">
          <mxGeometry x="-0.0829" y="-2" relative="1" as="geometry">
            <mxPoint x="-1" as="offset" />
          </mxGeometry>
        </mxCell>
        <mxCell id="KQ_jogMIXowBVhOlgcpt-25" value="tid=1" style="rounded=1;whiteSpace=wrap;html=1;" parent="1" vertex="1">
          <mxGeometry x="150" y="410" width="50" height="20" as="geometry" />
        </mxCell>
        <mxCell id="KQ_jogMIXowBVhOlgcpt-26" value="" style="endArrow=classic;html=1;rounded=0;exitX=1;exitY=0.5;exitDx=0;exitDy=0;" parent="1" source="KQ_jogMIXowBVhOlgcpt-25" edge="1">
          <mxGeometry width="50" height="50" relative="1" as="geometry">
            <mxPoint x="180" y="500" as="sourcePoint" />
            <mxPoint x="240" y="420" as="targetPoint" />
          </mxGeometry>
        </mxCell>
        <mxCell id="KQ_jogMIXowBVhOlgcpt-27" value="..." style="text;html=1;align=center;verticalAlign=middle;resizable=0;points=[];autosize=1;strokeColor=none;fillColor=none;" parent="1" vertex="1">
          <mxGeometry x="340" y="440" width="30" height="30" as="geometry" />
        </mxCell>
        <mxCell id="KQ_jogMIXowBVhOlgcpt-28" value="" style="shape=flexArrow;endArrow=classic;html=1;rounded=0;endWidth=12.083333333333334;endSize=5.916666666666667;fillColor=#e3c800;strokeColor=#B09500;" parent="1" edge="1">
          <mxGeometry width="50" height="50" relative="1" as="geometry">
            <mxPoint x="240" y="490" as="sourcePoint" />
            <mxPoint x="330" y="490" as="targetPoint" />
          </mxGeometry>
        </mxCell>
        <mxCell id="KQ_jogMIXowBVhOlgcpt-29" value="LDGSTS" style="edgeLabel;html=1;align=center;verticalAlign=middle;resizable=0;points=[];" parent="KQ_jogMIXowBVhOlgcpt-28" vertex="1" connectable="0">
          <mxGeometry x="-0.0829" y="-2" relative="1" as="geometry">
            <mxPoint x="-1" as="offset" />
          </mxGeometry>
        </mxCell>
        <mxCell id="KQ_jogMIXowBVhOlgcpt-30" value="" style="shape=flexArrow;endArrow=classic;html=1;rounded=0;endWidth=12.083333333333334;endSize=5.916666666666667;fillColor=#1ba1e2;strokeColor=#006EAF;" parent="1" edge="1">
          <mxGeometry width="50" height="50" relative="1" as="geometry">
            <mxPoint x="330" y="490" as="sourcePoint" />
            <mxPoint x="400" y="490" as="targetPoint" />
          </mxGeometry>
        </mxCell>
        <mxCell id="KQ_jogMIXowBVhOlgcpt-31" value="S2R" style="edgeLabel;html=1;align=center;verticalAlign=middle;resizable=0;points=[];" parent="KQ_jogMIXowBVhOlgcpt-30" vertex="1" connectable="0">
          <mxGeometry x="-0.0829" y="-2" relative="1" as="geometry">
            <mxPoint x="-1" as="offset" />
          </mxGeometry>
        </mxCell>
        <mxCell id="KQ_jogMIXowBVhOlgcpt-32" value="" style="shape=flexArrow;endArrow=classic;html=1;rounded=0;endWidth=12.083333333333334;endSize=5.916666666666667;fillColor=#a20025;strokeColor=#6F0000;" parent="1" edge="1">
          <mxGeometry width="50" height="50" relative="1" as="geometry">
            <mxPoint x="400" y="490" as="sourcePoint" />
            <mxPoint x="470" y="490" as="targetPoint" />
          </mxGeometry>
        </mxCell>
        <mxCell id="KQ_jogMIXowBVhOlgcpt-33" value="calc" style="edgeLabel;html=1;align=center;verticalAlign=middle;resizable=0;points=[];" parent="KQ_jogMIXowBVhOlgcpt-32" vertex="1" connectable="0">
          <mxGeometry x="-0.0829" y="-2" relative="1" as="geometry">
            <mxPoint x="-1" as="offset" />
          </mxGeometry>
        </mxCell>
        <mxCell id="KQ_jogMIXowBVhOlgcpt-34" value="" style="shape=flexArrow;endArrow=classic;html=1;rounded=0;endWidth=12.083333333333334;endSize=5.916666666666667;fillColor=#1ba1e2;strokeColor=#006EAF;" parent="1" edge="1">
          <mxGeometry width="50" height="50" relative="1" as="geometry">
            <mxPoint x="470" y="490" as="sourcePoint" />
            <mxPoint x="540" y="490" as="targetPoint" />
          </mxGeometry>
        </mxCell>
        <mxCell id="KQ_jogMIXowBVhOlgcpt-35" value="R2S" style="edgeLabel;html=1;align=center;verticalAlign=middle;resizable=0;points=[];" parent="KQ_jogMIXowBVhOlgcpt-34" vertex="1" connectable="0">
          <mxGeometry x="-0.0829" y="-2" relative="1" as="geometry">
            <mxPoint x="-1" as="offset" />
          </mxGeometry>
        </mxCell>
        <mxCell id="KQ_jogMIXowBVhOlgcpt-36" value="" style="shape=flexArrow;endArrow=classic;html=1;rounded=0;endWidth=12.083333333333334;endSize=5.916666666666667;fillColor=#e3c800;strokeColor=#B09500;" parent="1" edge="1">
          <mxGeometry width="50" height="50" relative="1" as="geometry">
            <mxPoint x="540" y="490" as="sourcePoint" />
            <mxPoint x="630" y="490" as="targetPoint" />
          </mxGeometry>
        </mxCell>
        <mxCell id="KQ_jogMIXowBVhOlgcpt-37" value="LDS" style="edgeLabel;html=1;align=center;verticalAlign=middle;resizable=0;points=[];" parent="KQ_jogMIXowBVhOlgcpt-36" vertex="1" connectable="0">
          <mxGeometry x="-0.0829" y="-2" relative="1" as="geometry">
            <mxPoint x="-1" as="offset" />
          </mxGeometry>
        </mxCell>
        <mxCell id="KQ_jogMIXowBVhOlgcpt-38" value="tid=31" style="rounded=1;whiteSpace=wrap;html=1;" parent="1" vertex="1">
          <mxGeometry x="150" y="480" width="50" height="20" as="geometry" />
        </mxCell>
        <mxCell id="KQ_jogMIXowBVhOlgcpt-39" value="" style="endArrow=classic;html=1;rounded=0;exitX=1;exitY=0.5;exitDx=0;exitDy=0;" parent="1" source="KQ_jogMIXowBVhOlgcpt-38" edge="1">
          <mxGeometry width="50" height="50" relative="1" as="geometry">
            <mxPoint x="180" y="570" as="sourcePoint" />
            <mxPoint x="240" y="490" as="targetPoint" />
          </mxGeometry>
        </mxCell>
        <mxCell id="KQ_jogMIXowBVhOlgcpt-40" value="" style="shape=curlyBracket;whiteSpace=wrap;html=1;rounded=1;labelPosition=left;verticalLabelPosition=middle;align=right;verticalAlign=middle;" parent="1" vertex="1">
          <mxGeometry x="130" y="380" width="20" height="120" as="geometry" />
        </mxCell>
        <mxCell id="KQ_jogMIXowBVhOlgcpt-41" value="one sinlge warp" style="rounded=1;whiteSpace=wrap;html=1;" parent="1" vertex="1">
          <mxGeometry x="60" y="415" width="50" height="50" as="geometry" />
        </mxCell>
        <mxCell id="KQ_jogMIXowBVhOlgcpt-42" style="edgeStyle=orthogonalEdgeStyle;rounded=0;orthogonalLoop=1;jettySize=auto;html=1;entryX=0.1;entryY=0.5;entryDx=0;entryDy=0;entryPerimeter=0;" parent="1" source="KQ_jogMIXowBVhOlgcpt-41" target="KQ_jogMIXowBVhOlgcpt-40" edge="1">
          <mxGeometry relative="1" as="geometry" />
        </mxCell>
        <mxCell id="OG01RpuyPjT9w209RlCd-12" value="" style="rounded=0;whiteSpace=wrap;html=1;" vertex="1" parent="1">
          <mxGeometry x="70" y="1240" width="280" height="60" as="geometry" />
        </mxCell>
        <mxCell id="OG01RpuyPjT9w209RlCd-14" value="" style="rounded=0;whiteSpace=wrap;html=1;fillColor=#ffff88;strokeColor=#36393d;" vertex="1" parent="1">
          <mxGeometry x="70" y="1240" width="40" height="60" as="geometry" />
        </mxCell>
        <mxCell id="OG01RpuyPjT9w209RlCd-17" value="" style="rounded=0;whiteSpace=wrap;html=1;" vertex="1" parent="1">
          <mxGeometry x="70" y="1340" width="280" height="60" as="geometry" />
        </mxCell>
        <mxCell id="OG01RpuyPjT9w209RlCd-18" value="" style="rounded=0;whiteSpace=wrap;html=1;fillColor=#cdeb8b;strokeColor=#36393d;" vertex="1" parent="1">
          <mxGeometry x="70" y="1340" width="40" height="60" as="geometry" />
        </mxCell>
        <mxCell id="OG01RpuyPjT9w209RlCd-46" style="edgeStyle=orthogonalEdgeStyle;rounded=0;orthogonalLoop=1;jettySize=auto;html=1;" edge="1" parent="1" source="OG01RpuyPjT9w209RlCd-19" target="OG01RpuyPjT9w209RlCd-24">
          <mxGeometry relative="1" as="geometry" />
        </mxCell>
        <mxCell id="OG01RpuyPjT9w209RlCd-19" value="" style="rounded=0;whiteSpace=wrap;html=1;fillColor=#ffff88;strokeColor=#36393d;" vertex="1" parent="1">
          <mxGeometry x="410" y="1240" width="40" height="60" as="geometry" />
        </mxCell>
        <mxCell id="OG01RpuyPjT9w209RlCd-48" style="edgeStyle=orthogonalEdgeStyle;rounded=0;orthogonalLoop=1;jettySize=auto;html=1;entryX=0;entryY=0.5;entryDx=0;entryDy=0;" edge="1" parent="1" source="OG01RpuyPjT9w209RlCd-20" target="OG01RpuyPjT9w209RlCd-45">
          <mxGeometry relative="1" as="geometry" />
        </mxCell>
        <mxCell id="OG01RpuyPjT9w209RlCd-20" value="" style="rounded=0;whiteSpace=wrap;html=1;fillColor=#cdeb8b;strokeColor=#36393d;" vertex="1" parent="1">
          <mxGeometry x="410" y="1340" width="40" height="60" as="geometry" />
        </mxCell>
        <mxCell id="OG01RpuyPjT9w209RlCd-21" value="" style="rounded=0;whiteSpace=wrap;html=1;" vertex="1" parent="1">
          <mxGeometry x="610" y="1240" width="80" height="60" as="geometry" />
        </mxCell>
        <mxCell id="OG01RpuyPjT9w209RlCd-22" value="&lt;font style=&quot;font-size: 18px;&quot;&gt;reg_store_idx = 0&lt;/font&gt;" style="text;html=1;align=center;verticalAlign=middle;resizable=0;points=[];autosize=1;strokeColor=none;fillColor=none;" vertex="1" parent="1">
          <mxGeometry x="-150" y="1290" width="160" height="40" as="geometry" />
        </mxCell>
        <mxCell id="OG01RpuyPjT9w209RlCd-23" value="&lt;font style=&quot;font-size: 18px;&quot;&gt;reg_load_idx = 1&lt;/font&gt;" style="text;html=1;align=center;verticalAlign=middle;resizable=0;points=[];autosize=1;strokeColor=none;fillColor=none;" vertex="1" parent="1">
          <mxGeometry x="-150" y="1320" width="160" height="40" as="geometry" />
        </mxCell>
        <mxCell id="OG01RpuyPjT9w209RlCd-24" value="" style="rounded=0;whiteSpace=wrap;html=1;fillColor=#ffff88;strokeColor=#36393d;" vertex="1" parent="1">
          <mxGeometry x="610" y="1240" width="40" height="60" as="geometry" />
        </mxCell>
        <mxCell id="OG01RpuyPjT9w209RlCd-28" style="edgeStyle=orthogonalEdgeStyle;rounded=0;orthogonalLoop=1;jettySize=auto;html=1;exitX=0.5;exitY=1;exitDx=0;exitDy=0;" edge="1" parent="1" source="OG01RpuyPjT9w209RlCd-26" target="OG01RpuyPjT9w209RlCd-24">
          <mxGeometry relative="1" as="geometry" />
        </mxCell>
        <mxCell id="OG01RpuyPjT9w209RlCd-26" value="&lt;font style=&quot;font-size: 12px;&quot;&gt;&lt;b&gt;RA[0]&lt;/b&gt;&lt;/font&gt;" style="rounded=1;whiteSpace=wrap;html=1;" vertex="1" parent="1">
          <mxGeometry x="612.5" y="1180" width="35" height="22.5" as="geometry" />
        </mxCell>
        <mxCell id="OG01RpuyPjT9w209RlCd-32" style="edgeStyle=orthogonalEdgeStyle;rounded=0;orthogonalLoop=1;jettySize=auto;html=1;entryX=0.75;entryY=0;entryDx=0;entryDy=0;" edge="1" parent="1" source="OG01RpuyPjT9w209RlCd-31" target="OG01RpuyPjT9w209RlCd-21">
          <mxGeometry relative="1" as="geometry" />
        </mxCell>
        <mxCell id="OG01RpuyPjT9w209RlCd-31" value="&lt;font style=&quot;font-size: 12px;&quot;&gt;&lt;b&gt;RA[1]&lt;/b&gt;&lt;/font&gt;" style="rounded=1;whiteSpace=wrap;html=1;" vertex="1" parent="1">
          <mxGeometry x="653" y="1180" width="35" height="22.5" as="geometry" />
        </mxCell>
        <mxCell id="OG01RpuyPjT9w209RlCd-34" value="" style="rounded=0;whiteSpace=wrap;html=1;" vertex="1" parent="1">
          <mxGeometry x="610" y="1340" width="80" height="60" as="geometry" />
        </mxCell>
        <mxCell id="OG01RpuyPjT9w209RlCd-40" style="edgeStyle=orthogonalEdgeStyle;rounded=0;orthogonalLoop=1;jettySize=auto;html=1;entryX=0.5;entryY=1;entryDx=0;entryDy=0;" edge="1" parent="1" source="OG01RpuyPjT9w209RlCd-37">
          <mxGeometry relative="1" as="geometry">
            <mxPoint x="630" y="1400" as="targetPoint" />
          </mxGeometry>
        </mxCell>
        <mxCell id="OG01RpuyPjT9w209RlCd-37" value="&lt;font style=&quot;font-size: 12px;&quot;&gt;&lt;b&gt;RB[0]&lt;/b&gt;&lt;/font&gt;" style="rounded=1;whiteSpace=wrap;html=1;" vertex="1" parent="1">
          <mxGeometry x="612.5" y="1430" width="35" height="22.5" as="geometry" />
        </mxCell>
        <mxCell id="OG01RpuyPjT9w209RlCd-44" style="edgeStyle=orthogonalEdgeStyle;rounded=0;orthogonalLoop=1;jettySize=auto;html=1;entryX=0.75;entryY=1;entryDx=0;entryDy=0;" edge="1" parent="1" source="OG01RpuyPjT9w209RlCd-39" target="OG01RpuyPjT9w209RlCd-34">
          <mxGeometry relative="1" as="geometry" />
        </mxCell>
        <mxCell id="OG01RpuyPjT9w209RlCd-39" value="&lt;font style=&quot;font-size: 12px;&quot;&gt;&lt;b&gt;RB[1]&lt;/b&gt;&lt;/font&gt;" style="rounded=1;whiteSpace=wrap;html=1;" vertex="1" parent="1">
          <mxGeometry x="653" y="1430" width="35" height="22.5" as="geometry" />
        </mxCell>
        <mxCell id="OG01RpuyPjT9w209RlCd-45" value="" style="rounded=0;whiteSpace=wrap;html=1;fillColor=#cdeb8b;strokeColor=#36393d;" vertex="1" parent="1">
          <mxGeometry x="610" y="1340" width="40" height="60" as="geometry" />
        </mxCell>
        <mxCell id="OG01RpuyPjT9w209RlCd-47" value="&lt;font style=&quot;font-size: 14px;&quot;&gt;RA[reg_store_idx]&lt;/font&gt;" style="text;html=1;align=center;verticalAlign=middle;resizable=0;points=[];autosize=1;strokeColor=none;fillColor=none;" vertex="1" parent="1">
          <mxGeometry x="460" y="1240" width="140" height="30" as="geometry" />
        </mxCell>
        <mxCell id="OG01RpuyPjT9w209RlCd-49" value="&lt;font style=&quot;font-size: 14px;&quot;&gt;RB[reg_store_idx]&lt;/font&gt;" style="text;html=1;align=center;verticalAlign=middle;resizable=0;points=[];autosize=1;strokeColor=none;fillColor=none;" vertex="1" parent="1">
          <mxGeometry x="460" y="1340" width="140" height="30" as="geometry" />
        </mxCell>
        <mxCell id="OG01RpuyPjT9w209RlCd-50" value="" style="rounded=0;whiteSpace=wrap;html=1;" vertex="1" parent="1">
          <mxGeometry x="72" y="1574" width="280" height="60" as="geometry" />
        </mxCell>
        <mxCell id="OG01RpuyPjT9w209RlCd-51" value="" style="rounded=0;whiteSpace=wrap;html=1;fillColor=#ffff88;strokeColor=#36393d;" vertex="1" parent="1">
          <mxGeometry x="72" y="1574" width="40" height="60" as="geometry" />
        </mxCell>
        <mxCell id="OG01RpuyPjT9w209RlCd-52" value="" style="rounded=0;whiteSpace=wrap;html=1;" vertex="1" parent="1">
          <mxGeometry x="72" y="1674" width="280" height="60" as="geometry" />
        </mxCell>
        <mxCell id="OG01RpuyPjT9w209RlCd-53" value="" style="rounded=0;whiteSpace=wrap;html=1;fillColor=#cdeb8b;strokeColor=#36393d;" vertex="1" parent="1">
          <mxGeometry x="72" y="1674" width="40" height="60" as="geometry" />
        </mxCell>
        <mxCell id="OG01RpuyPjT9w209RlCd-54" style="edgeStyle=orthogonalEdgeStyle;rounded=0;orthogonalLoop=1;jettySize=auto;html=1;" edge="1" parent="1" source="OG01RpuyPjT9w209RlCd-55" target="OG01RpuyPjT9w209RlCd-61">
          <mxGeometry relative="1" as="geometry" />
        </mxCell>
        <mxCell id="OG01RpuyPjT9w209RlCd-55" value="" style="rounded=0;whiteSpace=wrap;html=1;fillColor=#ffff88;strokeColor=#36393d;" vertex="1" parent="1">
          <mxGeometry x="412" y="1574" width="40" height="60" as="geometry" />
        </mxCell>
        <mxCell id="OG01RpuyPjT9w209RlCd-56" style="edgeStyle=orthogonalEdgeStyle;rounded=0;orthogonalLoop=1;jettySize=auto;html=1;entryX=0;entryY=0.5;entryDx=0;entryDy=0;" edge="1" parent="1" source="OG01RpuyPjT9w209RlCd-57" target="OG01RpuyPjT9w209RlCd-71">
          <mxGeometry relative="1" as="geometry" />
        </mxCell>
        <mxCell id="OG01RpuyPjT9w209RlCd-57" value="" style="rounded=0;whiteSpace=wrap;html=1;fillColor=#cdeb8b;strokeColor=#36393d;" vertex="1" parent="1">
          <mxGeometry x="412" y="1674" width="40" height="60" as="geometry" />
        </mxCell>
        <mxCell id="OG01RpuyPjT9w209RlCd-58" value="" style="rounded=0;whiteSpace=wrap;html=1;" vertex="1" parent="1">
          <mxGeometry x="612" y="1574" width="80" height="60" as="geometry" />
        </mxCell>
        <mxCell id="OG01RpuyPjT9w209RlCd-59" value="&lt;font style=&quot;font-size: 18px;&quot;&gt;reg_store_idx = 1&lt;/font&gt;" style="text;html=1;align=center;verticalAlign=middle;resizable=0;points=[];autosize=1;strokeColor=none;fillColor=none;" vertex="1" parent="1">
          <mxGeometry x="-148" y="1624" width="160" height="40" as="geometry" />
        </mxCell>
        <mxCell id="OG01RpuyPjT9w209RlCd-60" value="&lt;font style=&quot;font-size: 18px;&quot;&gt;reg_load_idx = 0&lt;/font&gt;" style="text;html=1;align=center;verticalAlign=middle;resizable=0;points=[];autosize=1;strokeColor=none;fillColor=none;" vertex="1" parent="1">
          <mxGeometry x="-148" y="1654" width="160" height="40" as="geometry" />
        </mxCell>
        <mxCell id="OG01RpuyPjT9w209RlCd-61" value="" style="rounded=0;whiteSpace=wrap;html=1;fillColor=#ffff88;strokeColor=#36393d;" vertex="1" parent="1">
          <mxGeometry x="612" y="1574" width="40" height="60" as="geometry" />
        </mxCell>
        <mxCell id="OG01RpuyPjT9w209RlCd-62" style="edgeStyle=orthogonalEdgeStyle;rounded=0;orthogonalLoop=1;jettySize=auto;html=1;exitX=0.5;exitY=1;exitDx=0;exitDy=0;" edge="1" parent="1" source="OG01RpuyPjT9w209RlCd-63" target="OG01RpuyPjT9w209RlCd-61">
          <mxGeometry relative="1" as="geometry" />
        </mxCell>
        <mxCell id="OG01RpuyPjT9w209RlCd-63" value="&lt;font style=&quot;font-size: 12px;&quot;&gt;&lt;b&gt;RA[0]&lt;/b&gt;&lt;/font&gt;" style="rounded=1;whiteSpace=wrap;html=1;" vertex="1" parent="1">
          <mxGeometry x="614.5" y="1514" width="35" height="22.5" as="geometry" />
        </mxCell>
        <mxCell id="OG01RpuyPjT9w209RlCd-64" style="edgeStyle=orthogonalEdgeStyle;rounded=0;orthogonalLoop=1;jettySize=auto;html=1;entryX=0.75;entryY=0;entryDx=0;entryDy=0;" edge="1" parent="1" source="OG01RpuyPjT9w209RlCd-65" target="OG01RpuyPjT9w209RlCd-58">
          <mxGeometry relative="1" as="geometry" />
        </mxCell>
        <mxCell id="OG01RpuyPjT9w209RlCd-65" value="&lt;font style=&quot;font-size: 12px;&quot;&gt;&lt;b&gt;RA[1]&lt;/b&gt;&lt;/font&gt;" style="rounded=1;whiteSpace=wrap;html=1;" vertex="1" parent="1">
          <mxGeometry x="655" y="1514" width="35" height="22.5" as="geometry" />
        </mxCell>
        <mxCell id="OG01RpuyPjT9w209RlCd-66" value="" style="rounded=0;whiteSpace=wrap;html=1;" vertex="1" parent="1">
          <mxGeometry x="612" y="1674" width="80" height="60" as="geometry" />
        </mxCell>
        <mxCell id="OG01RpuyPjT9w209RlCd-67" style="edgeStyle=orthogonalEdgeStyle;rounded=0;orthogonalLoop=1;jettySize=auto;html=1;entryX=0.5;entryY=1;entryDx=0;entryDy=0;" edge="1" parent="1" source="OG01RpuyPjT9w209RlCd-68">
          <mxGeometry relative="1" as="geometry">
            <mxPoint x="632" y="1734" as="targetPoint" />
          </mxGeometry>
        </mxCell>
        <mxCell id="OG01RpuyPjT9w209RlCd-68" value="&lt;font style=&quot;font-size: 12px;&quot;&gt;&lt;b&gt;RB[0]&lt;/b&gt;&lt;/font&gt;" style="rounded=1;whiteSpace=wrap;html=1;" vertex="1" parent="1">
          <mxGeometry x="614.5" y="1764" width="35" height="22.5" as="geometry" />
        </mxCell>
        <mxCell id="OG01RpuyPjT9w209RlCd-69" style="edgeStyle=orthogonalEdgeStyle;rounded=0;orthogonalLoop=1;jettySize=auto;html=1;entryX=0.75;entryY=1;entryDx=0;entryDy=0;" edge="1" parent="1" source="OG01RpuyPjT9w209RlCd-70" target="OG01RpuyPjT9w209RlCd-66">
          <mxGeometry relative="1" as="geometry" />
        </mxCell>
        <mxCell id="OG01RpuyPjT9w209RlCd-70" value="&lt;font style=&quot;font-size: 12px;&quot;&gt;&lt;b&gt;RB[1]&lt;/b&gt;&lt;/font&gt;" style="rounded=1;whiteSpace=wrap;html=1;" vertex="1" parent="1">
          <mxGeometry x="655" y="1764" width="35" height="22.5" as="geometry" />
        </mxCell>
        <mxCell id="OG01RpuyPjT9w209RlCd-71" value="" style="rounded=0;whiteSpace=wrap;html=1;fillColor=#cdeb8b;strokeColor=#36393d;" vertex="1" parent="1">
          <mxGeometry x="612" y="1674" width="40" height="60" as="geometry" />
        </mxCell>
        <mxCell id="OG01RpuyPjT9w209RlCd-72" value="&lt;font style=&quot;font-size: 14px;&quot;&gt;RA[reg_store_idx]&lt;/font&gt;" style="text;html=1;align=center;verticalAlign=middle;resizable=0;points=[];autosize=1;strokeColor=none;fillColor=none;" vertex="1" parent="1">
          <mxGeometry x="462" y="1574" width="140" height="30" as="geometry" />
        </mxCell>
        <mxCell id="OG01RpuyPjT9w209RlCd-73" value="&lt;font style=&quot;font-size: 14px;&quot;&gt;RB[reg_store_idx]&lt;/font&gt;" style="text;html=1;align=center;verticalAlign=middle;resizable=0;points=[];autosize=1;strokeColor=none;fillColor=none;" vertex="1" parent="1">
          <mxGeometry x="462" y="1674" width="140" height="30" as="geometry" />
        </mxCell>
      </root>
    </mxGraphModel>
  </diagram>
</mxfile>
